<svg width="324" height="63" viewBox="0 0 324 63" fill="none" xmlns="http://www.w3.org/2000/svg">
<path d="M38.408 58.648L37.616 61.096L25.304 62.176L19.184 59.152V61.96L7.808 62.968L0.608 59.368V4.648L14.72 3.352L21.92 6.952L27.68 28.408L34.304 3.064L48.344 1.912L55.544 5.512V60.304L43.592 61.24L38.408 58.648ZM34.88 3.784L25.736 39.064C25.592 39.64 25.448 40.312 25.304 41.08C25.16 41.8 25.04 42.448 24.944 43.024C24.848 43.6 24.8 43.888 24.8 43.888L24.512 43.96C24.512 43.96 24.464 43.672 24.368 43.096C24.32 42.52 24.224 41.848 24.08 41.08C23.984 40.312 23.864 39.664 23.72 39.136L14.144 4.144L1.328 5.296V58.576L11.264 57.784V34.744C11.264 33.736 11.24 32.68 11.192 31.576C11.144 30.424 11.096 29.464 11.048 28.696C11 27.928 10.976 27.544 10.976 27.544L11.12 27.472C11.216 28.144 11.336 28.984 11.48 29.992C11.672 30.952 11.864 31.888 12.056 32.8C12.296 33.664 12.464 34.336 12.56 34.816L18.608 57.856L29.768 56.848L35.672 34.744C35.96 33.64 36.224 32.488 36.464 31.288C36.704 30.04 36.896 28.984 37.04 28.12C37.184 27.256 37.256 26.824 37.256 26.824L37.4 26.896C37.4 26.896 37.376 27.328 37.328 28.192C37.28 29.056 37.232 30.064 37.184 31.216C37.136 32.368 37.112 33.4 37.112 34.312V56.92L47.624 56.056V2.704L34.88 3.784ZM64.733 58.504V3.784L77.045 2.704L84.245 6.304V44.68L94.325 43.816L101.525 47.416V59.584L71.933 62.104L64.733 58.504ZM76.325 46.12V3.496L65.453 4.432V57.784L93.605 55.336V44.608L76.325 46.12Z" fill="black"/>
<path d="M166.658 58.648L165.866 61.096L153.554 62.176L147.434 59.152V61.96L136.058 62.968L128.858 59.368V4.648L142.97 3.352L150.17 6.952L155.93 28.408L162.554 3.064L176.594 1.912L183.794 5.512V60.304L171.842 61.24L166.658 58.648ZM163.13 3.784L153.986 39.064C153.842 39.64 153.698 40.312 153.554 41.08C153.41 41.8 153.29 42.448 153.194 43.024C153.098 43.6 153.05 43.888 153.05 43.888L152.762 43.96C152.762 43.96 152.714 43.672 152.618 43.096C152.57 42.52 152.474 41.848 152.33 41.08C152.234 40.312 152.114 39.664 151.97 39.136L142.394 4.144L129.578 5.296V58.576L139.514 57.784V34.744C139.514 33.736 139.49 32.68 139.442 31.576C139.394 30.424 139.346 29.464 139.298 28.696C139.25 27.928 139.226 27.544 139.226 27.544L139.37 27.472C139.466 28.144 139.586 28.984 139.73 29.992C139.922 30.952 140.114 31.888 140.306 32.8C140.546 33.664 140.714 34.336 140.81 34.816L146.858 57.856L158.018 56.848L163.922 34.744C164.21 33.64 164.474 32.488 164.714 31.288C164.954 30.04 165.146 28.984 165.29 28.12C165.434 27.256 165.506 26.824 165.506 26.824L165.65 26.896C165.65 26.896 165.626 27.328 165.578 28.192C165.53 29.056 165.482 30.064 165.434 31.216C165.386 32.368 165.362 33.4 165.362 34.312V56.92L175.874 56.056V2.704L163.13 3.784ZM192.983 58.576V3.856L224.015 1.12L231.215 4.72V16.528L212.495 18.184V22.504L220.199 21.784L227.399 25.384V37.048L212.495 38.416V45.184L225.239 44.032L232.439 47.632V59.368L200.183 62.176L192.983 58.576ZM204.575 46.624V34.168L219.479 32.8V22.576L204.575 23.944V13.936L223.295 12.28V1.912L193.703 4.504V57.856L224.519 55.12V44.824L204.575 46.624ZM238.686 58.576V3.856L269.718 1.12L276.918 4.72V16.528L258.198 18.184V22.504L265.902 21.784L273.102 25.384V37.048L258.198 38.416V45.184L270.942 44.032L278.142 47.632V59.368L245.886 62.176L238.686 58.576ZM250.278 46.624V34.168L265.182 32.8V22.576L250.278 23.944V13.936L268.998 12.28V1.912L239.406 4.504V57.856L270.222 55.12V44.824L250.278 46.624ZM292.669 57.784V19.336L288.133 19.696L280.933 16.096V4L316.789 0.831998L323.989 4.432V16.528L312.253 17.536V60.16L299.869 61.312L292.669 57.784ZM316.069 12.28V1.624L281.653 4.648V15.304L293.389 14.296V56.992L304.333 56.056V13.288L316.069 12.28Z" fill="#FD5555"/>
</svg>
